# xmcd
#
# Track frame offsets:
#	150
#	11220
#	25522
#	49425
#	65225
#	79097
#	98832
#	115075
#	127710
#	146480
#	163392
#	181132
#
# Disc length: 2691 seconds
#
# Revision: 4
# Processed by: cddbd v1.4PL0 Copyright (c) Steve Scherf et al.
# Submitted via: EasyCDDAExtractor 4.6.9.1
#
DISCID=9f0a810c
DTITLE=John Lee Hooker - That's My Story ( Sings the Blues)
DYEAR=1960
DGENRE=Blues
TTITLE0=I Need Some Money
TTITLE1=Come On and See About Me
TTITLE2=I'm Wanderin'
TTITLE3=Democrat Man
TTITLE4=I Want To Talk About You
TTITLE5=Gonna Use My Rod
TTITLE6=Wednesday Evenin' Blues
TTITLE7=No More Doggin'
TTITLE8=One Of These Days
TTITLE9=I Believe I'll Go Back Home
TTITLE10=You're Leavin' Me, Baby
TTITLE11=That's My Story
EXTD=Riverside  RLP-12-321  New York City, 9-Feb-1960\nOBCCD-538-2\nJohn Lee H
EXTD=ooker: Guitar, Vocals\nSam Jones: Bass (except Come On and See About Me, 
EXTD=Democrat Man, That;s My Story]\nLouis Hayes: Drums (same exceptions as Jo
EXTD=nes]\n(No other band info]\n\nEntry: Mike Lempriere  mikel@speakeasy.org 
EXTD=31-Dec-96\n
EXTT0=
EXTT1=
EXTT2=
EXTT3=
EXTT4=
EXTT5=
EXTT6=
EXTT7=
EXTT8=
EXTT9=
EXTT10=
EXTT11=
PLAYORDER=
